<svg width="78" height="75" viewBox="0 0 78 75" fill="none" xmlns="http://www.w3.org/2000/svg">
<g id="mdi:instagram">
<path id="Vector" d="M25.35 6.25H52.65C63.05 6.25 71.5 14.375 71.5 24.375V50.625C71.5 55.4321 69.514 60.0422 65.979 63.4413C62.4439 66.8404 57.6493 68.75 52.65 68.75H25.35C14.95 68.75 6.5 60.625 6.5 50.625V24.375C6.5 19.568 8.48598 14.9578 12.021 11.5587C15.5561 8.15959 20.3507 6.25 25.35 6.25ZM24.7 12.5C21.597 12.5 18.621 13.6853 16.4269 15.795C14.2327 17.9048 13 20.7663 13 23.75V51.25C13 57.4688 18.2325 62.5 24.7 62.5H53.3C56.403 62.5 59.379 61.3147 61.5732 59.205C63.7673 57.0952 65 54.2337 65 51.25V23.75C65 17.5312 59.7675 12.5 53.3 12.5H24.7ZM56.0625 17.1875C57.1399 17.1875 58.1733 17.5991 58.9351 18.3316C59.697 19.0642 60.125 20.0577 60.125 21.0938C60.125 22.1298 59.697 23.1233 58.9351 23.8559C58.1733 24.5884 57.1399 25 56.0625 25C54.9851 25 53.9517 24.5884 53.1899 23.8559C52.428 23.1233 52 22.1298 52 21.0938C52 20.0577 52.428 19.0642 53.1899 18.3316C53.9517 17.5991 54.9851 17.1875 56.0625 17.1875ZM39 21.875C43.3098 21.875 47.443 23.5212 50.4905 26.4515C53.538 29.3817 55.25 33.356 55.25 37.5C55.25 41.644 53.538 45.6183 50.4905 48.5485C47.443 51.4788 43.3098 53.125 39 53.125C34.6902 53.125 30.557 51.4788 27.5095 48.5485C24.462 45.6183 22.75 41.644 22.75 37.5C22.75 33.356 24.462 29.3817 27.5095 26.4515C30.557 23.5212 34.6902 21.875 39 21.875ZM39 28.125C36.4141 28.125 33.9342 29.1127 32.1057 30.8709C30.2772 32.629 29.25 35.0136 29.25 37.5C29.25 39.9864 30.2772 42.371 32.1057 44.1291C33.9342 45.8873 36.4141 46.875 39 46.875C41.5859 46.875 44.0658 45.8873 45.8943 44.1291C47.7228 42.371 48.75 39.9864 48.75 37.5C48.75 35.0136 47.7228 32.629 45.8943 30.8709C44.0658 29.1127 41.5859 28.125 39 28.125Z" fill="white"/>
</g>
</svg>
