<svg width="73" height="72" viewBox="0 0 73 72" fill="none" xmlns="http://www.w3.org/2000/svg">
<g id="mdi:linkedin">
<path id="Vector" d="M57.7917 9C59.4051 9 60.9524 9.63214 62.0932 10.7574C63.2341 11.8826 63.875 13.4087 63.875 15V57C63.875 58.5913 63.2341 60.1174 62.0932 61.2426C60.9524 62.3679 59.4051 63 57.7917 63H15.2083C13.5949 63 12.0476 62.3679 10.9068 61.2426C9.76592 60.1174 9.125 58.5913 9.125 57V15C9.125 13.4087 9.76592 11.8826 10.9068 10.7574C12.0476 9.63214 13.5949 9 15.2083 9H57.7917ZM56.2708 55.5V39.6C56.2708 37.0062 55.2261 34.5186 53.3666 32.6845C51.507 30.8504 48.9848 29.82 46.355 29.82C43.7696 29.82 40.7583 31.38 39.2983 33.72V30.39H30.8121V55.5H39.2983V40.71C39.2983 38.4 41.1842 36.51 43.5263 36.51C44.6556 36.51 45.7388 36.9525 46.5373 37.7402C47.3359 38.5278 47.7846 39.5961 47.7846 40.71V55.5H56.2708ZM20.9267 25.68C22.2819 25.68 23.5817 25.149 24.54 24.2038C25.4983 23.2586 26.0367 21.9767 26.0367 20.64C26.0367 17.85 23.7554 15.57 20.9267 15.57C19.5633 15.57 18.2559 16.1042 17.2918 17.055C16.3278 18.0058 15.7863 19.2954 15.7863 20.64C15.7863 23.43 18.0979 25.68 20.9267 25.68ZM25.1546 55.5V30.39H16.7292V55.5H25.1546Z" fill="white"/>
</g>
</svg>
